<?xml version="1.0" standalone="no"?>
<!DOCTYPE svg PUBLIC "-//W3C//DTD SVG 20010904//EN"
 "http://www.w3.org/TR/2001/REC-SVG-20010904/DTD/svg10.dtd">
<svg version="1.0" xmlns="http://www.w3.org/2000/svg"
 width="1024.000000pt" height="1024.000000pt" viewBox="0 0 1024.000000 1024.000000"
 preserveAspectRatio="xMidYMid meet">
<metadata>
Created by potrace 1.11, written by Peter Selinger 2001-2013
</metadata>
<g transform="translate(0.000000,1024.000000) scale(0.100000,-0.100000)"
fill="#000000" stroke="none">
<path d="M265 10079 c-5 -5 -25 -23 -43 -40 -34 -31 -61 -70 -87 -128 -13 -30
-15 -454 -14 -3940 1 -2588 5 -3889 11 -3856 82 418 129 644 179 860 365 1585
936 3102 1697 4505 82 151 249 448 258 459 1 1 284 -50 628 -115 l625 -119 21
-115 c308 -1650 923 -3300 1747 -4689 47 -79 81 -146 76 -151 -4 -4 -287 -44
-628 -89 -341 -45 -637 -85 -657 -88 l-38 -5 -148 298 c-81 165 -182 376 -225
469 -70 157 -79 170 -104 173 -16 1 -441 -27 -946 -63 -505 -36 -924 -65 -931
-65 -22 0 -108 -373 -211 -919 -25 -129 -47 -236 -50 -239 -3 -3 -297 -45
-653 -93 -356 -48 -648 -88 -649 -88 -2 -1 -3 -380 -3 -842 l0 -842 31 -61
c27 -53 52 -82 113 -133 22 -19 9690 -19 9712 -1 60 51 86 81 113 133 l31 60
-2 3105 -3 3105 -92 -187 c-452 -918 -784 -1926 -981 -2978 l-38 -205 -470
-57 c-258 -32 -477 -56 -487 -55 -14 1 -31 34 -69 132 -245 642 -452 1344
-588 1990 -23 110 -44 207 -47 215 -7 17 -28 -46 -118 -355 -186 -635 -324
-1279 -420 -1959 -13 -93 -27 -171 -30 -174 -3 -3 -202 -29 -443 -58 -240 -29
-458 -55 -483 -58 l-46 -6 -121 362 c-445 1336 -696 2625 -788 4051 -8 137
-14 250 -12 252 2 2 210 -32 463 -76 253 -43 463 -79 466 -79 3 0 9 -60 13
-132 26 -494 110 -1207 205 -1733 61 -335 152 -764 201 -945 l12 -44 68 269
c190 756 433 1476 732 2175 39 91 75 170 79 176 6 7 136 -12 411 -58 222 -38
408 -70 413 -72 6 -2 21 -102 33 -227 71 -700 203 -1412 384 -2073 l52 -188
51 183 c113 402 244 790 400 1184 154 390 383 895 406 895 7 0 198 -31 425
-70 226 -38 414 -70 418 -70 3 0 6 741 6 1646 l0 1647 -31 61 c-27 53 -52 82
-113 134 -19 15 -9695 17 -9711 1z"/>
<path d="M2563 6073 c-125 -291 -190 -453 -295 -733 -82 -218 -258 -724 -258
-741 0 -5 227 -9 575 -9 316 0 575 4 575 8 0 4 -27 88 -60 187 -143 424 -256
813 -366 1250 -35 143 -66 264 -67 268 -1 5 -48 -99 -104 -230z"/>
</g>
</svg>
